<svg xmlns="http://www.w3.org/2000/svg" xmlns:xlink="http://www.w3.org/1999/xlink" viewBox="0 0 376.04 376.04"><defs><style>.cls-1{fill:none;}.cls-10,.cls-2{fill:#e8e8e8;}.cls-2{stroke-miterlimit:10;stroke-width:10px;stroke:url(#Dégradé_sans_nom_35);}.cls-3{fill:#545154;opacity:0.44;}.cls-4{fill:#1fa6bc;}.cls-5{clip-path:url(#clip-path);}.cls-6{fill:#197a84;}.cls-7{clip-path:url(#clip-path-2);}.cls-8{fill:#18757f;}.cls-9{fill:#fff;}.cls-11{fill:#a94f9e;}.cls-12{clip-path:url(#clip-path-3);}.cls-13{fill:#832990;}.cls-14{fill:#a54d9d;}.cls-15{clip-path:url(#clip-path-4);}.cls-16{fill:#812990;}</style><linearGradient id="Dégradé_sans_nom_35" y1="188.02" x2="376.04" y2="188.02" gradientUnits="userSpaceOnUse"><stop offset="0" stop-color="#197a84"/><stop offset="1" stop-color="#a94f9e"/></linearGradient><clipPath id="clip-path" transform="translate(-16.68 -17.96)"><polygon class="cls-1" points="103.32 224.36 118.14 290.12 129.5 300.39 137.18 287.88 132.49 283.43 134.68 278.27 129.15 274.31 132.25 268.92 127.26 264.55 111.28 223.01 103.32 224.36"/></clipPath><clipPath id="clip-path-2" transform="translate(-16.68 -17.96)"><ellipse class="cls-1" cx="103.25" cy="202.13" rx="24.6" ry="24.96" transform="translate(-47.49 32.44) rotate(-14.56)"/></clipPath><clipPath id="clip-path-3" transform="translate(-16.68 -17.96)"><polygon class="cls-1" points="240.09 170.41 273.98 320.28 299.51 343.79 316.6 315.36 306.04 305.19 310.92 293.47 298.48 284.4 305.38 272.15 294.15 262.16 257.91 167.43 240.09 170.41"/></clipPath><clipPath id="clip-path-4" transform="translate(-16.68 -17.96)"><ellipse class="cls-1" cx="239.71" cy="119.8" rx="55.06" ry="56.9" transform="translate(-22.42 64.1) rotate(-14.56)"/></clipPath></defs><title>change password</title><g id="Calque_4" data-name="Calque 4"><circle class="cls-2" cx="188.02" cy="188.02" r="183.02"/></g><g id="Calque_5" data-name="Calque 5"><path class="cls-3" d="M102.89,186.06h0l92.72-93.6,51,73.37L297.11,333.7l-169.81-34Z" transform="translate(-16.68 -17.96)"/></g><g id="blue_key" data-name="blue key"><polygon class="cls-4" points="86.64 206.39 101.47 272.16 112.82 282.43 120.5 269.91 115.81 265.46 118 260.31 112.47 256.35 115.58 250.95 110.58 246.58 94.6 205.05 86.64 206.39"/><g class="cls-5"><rect class="cls-6" x="118.39" y="222" width="24.98" height="76.76" transform="translate(-77.92 23.29) rotate(-14.56)"/></g><ellipse class="cls-4" cx="103.25" cy="202.13" rx="24.6" ry="24.96" transform="translate(-64.17 14.48) rotate(-14.56)"/><g class="cls-7"><polygon class="cls-8" points="110.49 196.89 104.12 212.92 75.98 176.92 91.33 172.93 110.49 196.89"/><polygon class="cls-8" points="121.14 215.92 118.08 227.98 86.63 195.94 91.04 191.35 121.14 215.92"/></g><path class="cls-9" d="M95.06,189.67" transform="translate(-16.68 -17.96)"/><ellipse class="cls-10" cx="104.84" cy="211.16" rx="3.76" ry="3.43" transform="translate(-66.39 15.17) rotate(-14.56)"/><ellipse class="cls-10" cx="100.88" cy="194.55" rx="8.05" ry="7.34" transform="matrix(0.97, -0.25, 0.25, 0.97, -62.34, 13.64)"/></g><g id="purple_key" data-name="purple key"><polygon class="cls-11" points="223.42 152.45 257.3 302.32 282.83 325.82 299.92 297.4 289.36 287.23 294.24 275.51 281.81 266.44 288.7 254.19 277.47 244.19 241.23 149.46 223.42 152.45"/><g class="cls-12"><rect class="cls-13" x="274.27" y="165.23" width="55.91" height="174.95" transform="translate(-70.49 66.11) rotate(-14.56)"/></g><ellipse class="cls-14" cx="239.71" cy="119.8" rx="55.06" ry="56.9" transform="translate(-39.09 46.13) rotate(-14.56)"/><g class="cls-15"><polygon class="cls-16" points="276.76 131.06 262.64 167.48 199.23 85.24 233.59 76.32 276.76 131.06"/><polygon class="cls-16" points="300.82 174.48 294.08 201.9 223.29 128.65 233.13 118.26 300.82 174.48"/></g><path class="cls-9" d="M221.25,91.36" transform="translate(-16.68 -17.96)"/><ellipse class="cls-10" cx="243.38" cy="140.37" rx="8.42" ry="7.81" transform="translate(-44.15 47.71) rotate(-14.56)"/><ellipse class="cls-10" cx="234.34" cy="102.54" rx="18.01" ry="16.72" transform="translate(-34.93 44.23) rotate(-14.56)"/></g></svg>