<svg id="Calque_1" data-name="Calque 1" xmlns="http://www.w3.org/2000/svg" viewBox="0 0 400 400"><defs><style>.cls-1,.cls-9{fill:#adc1c0;}.cls-2{fill:#cfebeb;}.cls-3{fill:#aabfbe;}.cls-4{fill:#9aadac;}.cls-5,.cls-6,.cls-7,.cls-8{fill:none;}.cls-5{stroke:#aabfbe;}.cls-5,.cls-6,.cls-7,.cls-8,.cls-9{stroke-miterlimit:10;stroke-width:14px;}.cls-6,.cls-9{stroke:#cfebeb;}.cls-7{stroke:#9aadac;}.cls-8{stroke:#b0c6c5;}</style></defs><title>circle-square</title><rect class="cls-1" x="118.93" width="160.71" height="10.64"/><rect class="cls-2" x="336.36" width="63.64" height="10.64"/><rect class="cls-2" width="63.64" height="10.64"/><rect class="cls-2" x="-26.5" y="84.64" width="63.64" height="10.64" transform="translate(95.29 84.64) rotate(90)"/><rect class="cls-3" x="-26.5" y="191.36" width="63.64" height="10.64" transform="translate(202 191.36) rotate(90)"/><rect class="cls-2" x="-26.5" y="298.07" width="63.64" height="10.64" transform="translate(308.71 298.07) rotate(90)"/><rect class="cls-2" x="362.86" y="84.64" width="63.64" height="10.64" transform="translate(484.64 -304.71) rotate(90)"/><rect class="cls-4" x="362.86" y="191.36" width="63.64" height="10.64" transform="translate(591.36 -198) rotate(90)"/><rect class="cls-2" x="362.86" y="298.07" width="63.64" height="10.64" transform="translate(698.07 -91.29) rotate(90)"/><rect class="cls-1" x="118.93" y="389.36" width="160.71" height="10.64"/><rect class="cls-2" x="336.36" y="389.36" width="63.64" height="10.64"/><rect class="cls-2" y="389.36" width="63.64" height="10.64"/><circle class="cls-5" cx="199.29" cy="196.68" r="172.88"/><rect class="cls-6" x="76.89" y="74.29" width="244.79" height="244.79"/><circle class="cls-7" cx="195.39" cy="200" r="122.39"/><rect class="cls-6" x="115.5" y="115.5" width="169" height="169" transform="translate(-56.49 80.77) rotate(-20.07)"/><circle class="cls-8" cx="199.29" cy="196.68" r="80.36"/><rect class="cls-9" x="167.57" y="167.57" width="64.86" height="64.86"/></svg>