<svg xmlns="http://www.w3.org/2000/svg" viewBox="0 0 311.54 304.93"><defs><style>.cls-1{fill:#e8e1df;}.cls-2{fill:#3cafaf;}.cls-3{fill:#46c2c9;}.cls-4{fill:none;}.cls-5{fill:#aeaaa9;}.cls-6{fill:#2b2928;opacity:0.47;}.cls-7{fill:#bfbbba;}</style></defs><title>empty enveloppe</title><g id="Calque_1" data-name="Calque 1"><rect class="cls-1" x="97" y="180.49" width="214.54" height="124.44"/><polygon class="cls-2" points="97 179.24 204.27 241.46 311.54 179.24 97 179.24"/><polygon class="cls-3" points="97 179.22 204.27 117 311.54 179.22 97 179.22"/><path class="cls-4" d="M171.6,218.12" transform="translate(-52.43 -38.9)"/><polygon class="cls-5" points="101.65 299.56 127.19 285.13 152.77 270.8 204.03 242.27 204.27 242.14 204.5 242.27 255.05 269.01 280.28 282.45 305.46 295.99 280.06 282.88 254.69 269.69 204.04 243.15 204.51 243.15 153.15 271.47 127.42 285.56 101.65 299.56"/></g><g id="Calque_1_-_copie" data-name="Calque 1 - copie"><rect class="cls-6" x="3.57" y="77.53" width="257.14" height="149.14"/><rect class="cls-1" y="74.6" width="257.14" height="149.14"/><polygon class="cls-2" points="0 74.6 128.57 149.17 257.14 74.6 0 74.6"/><polygon class="cls-3" points="0 74.57 128.57 0 257.14 74.57 0 74.57"/><path class="cls-4" d="M79,113.47" transform="translate(-52.43 -38.9)"/><polygon class="cls-7" points="5.57 218.81 36.2 201.56 66.91 184.45 128.33 150.24 128.56 150.1 128.8 150.23 189.37 182.31 219.65 198.35 249.86 214.53 219.42 198.78 189.06 182.89 128.34 151.11 128.81 151.1 67.23 185.03 36.44 201.99 5.57 218.81"/></g></svg>