<svg id="Calque_1" data-name="Calque 1" xmlns="http://www.w3.org/2000/svg" xmlns:xlink="http://www.w3.org/1999/xlink" viewBox="0 0 289.93 289.93"><defs><style>.cls-1{fill:none;}.cls-2{fill:#43c2c9;}.cls-3{fill:#121717;}.cls-4{fill:#b36748;}.cls-5{clip-path:url(#clip-path);}.cls-6{fill:#683b2c;}.cls-7{fill:#f9f9fa;}.cls-8{fill:#fff;}.cls-9{fill:#0b0a0a;}.cls-10{fill:#231f20;}.cls-11{fill:#563123;}</style><clipPath id="clip-path" transform="translate(-56.93 -54.57)"><circle class="cls-1" cx="191.28" cy="176.99" r="61.67"/></clipPath></defs><title>login myware</title><circle class="cls-2" cx="144.96" cy="144.96" r="144.96"/><path class="cls-3" d="M325.71,273.3H77.09A145,145,0,0,0,325.71,275Z" transform="translate(-56.93 -54.57)"/><path class="cls-3" d="M325.71,273.3H77.08c0-23.26,21.37-43.65,53.4-56.17l.13.32c4.18,4.69,49.5,31.26,68.14,30.94s60.54-36.68,60.54-36.68C298.07,223.21,325.12,246.48,325.71,273.3Z" transform="translate(-56.93 -54.57)"/><path class="cls-4" d="M130.61,217.45l-.13-.32c20.63-8.07,45.68-12.88,72.29-13.09a194.41,194.41,0,0,1,56.52,7.67s-41.9,36.36-60.54,36.68S134.79,222.14,130.61,217.45Z" transform="translate(-56.93 -54.57)"/><g class="cls-5"><path class="cls-3" d="M325.71,273.3H77.08c0-23.26,21.37-43.65,53.4-56.17l.13.32c4.18,4.69,49.5,31.26,68.14,30.94s60.54-36.68,60.54-36.68C298.07,223.21,325.12,246.48,325.71,273.3Z" transform="translate(-56.93 -54.57)"/><path class="cls-6" d="M145.8,200.82,143.55,197c20.63-8.07,32.61,7.29,59.22,7.08,20.27-.16,17.91-6.6,34.91-1.55,0,0-26.47,34.49-45.11,34.81S150,205.51,145.8,200.82Z" transform="translate(-56.93 -54.57)"/></g><circle class="cls-4" cx="133.91" cy="108.48" r="61.23"/><path class="cls-4" d="M247.43,334.43" transform="translate(-56.93 -54.57)"/><path class="cls-7" d="M169.19,191.32A.87.87,0,0,1,170,190a143.21,143.21,0,0,0,14.45.48c10.63,0,19.25-.29,23.58-.47a1.13,1.13,0,0,1,.8,2c-4.42,4-14.42,12.11-21.81,12.11C179.26,204,172,195.17,169.19,191.32Z" transform="translate(-56.93 -54.57)"/><g id="LEFT_EYE" data-name="LEFT EYE"><circle class="cls-8" cx="105.03" cy="99.24" r="9.24"/><circle class="cls-9" cx="105.03" cy="99.24" r="2.25"/><path class="cls-10" d="M151.21,139.65a18.1,18.1,0,0,1,5.39-1.93,20,20,0,0,1,5.79-.37,15.68,15.68,0,0,1,5.66,1.6A10.64,10.64,0,0,1,172.2,143a20.27,20.27,0,0,0-4.78-2.62,24.8,24.8,0,0,0-5.21-1,40.71,40.71,0,0,0-5.42-.08C155,139.35,153.12,139.49,151.21,139.65Z" transform="translate(-56.93 -54.57)"/></g><g id="RIGHT_EYE" data-name="RIGHT EYE"><circle class="cls-8" cx="156.03" cy="99.24" r="9.24"/><circle class="cls-9" cx="156.03" cy="99.24" r="2.25"/><path class="cls-10" d="M222.2,140.71a48.28,48.28,0,0,0-10.19-1,15.58,15.58,0,0,0-9.3,3.3,9.7,9.7,0,0,1,3.84-3.86,13,13,0,0,1,5.37-1.44,17,17,0,0,1,5.42.7A15.32,15.32,0,0,1,222.2,140.71Z" transform="translate(-56.93 -54.57)"/></g><path class="cls-11" d="M181,174.46s1.29,3.54,4.82,3.54,5.46-3.54,5.46-3.54Z" transform="translate(-56.93 -54.57)"/><path class="cls-4" d="M250.43,157.43s-1.06-2.57,2.52-2.57,4.23,9.64,3.91,12.53-4.47,13.72-6.58,10.4l-2.1-3.33Z" transform="translate(-56.93 -54.57)"/><path class="cls-4" d="M129.68,157.43s1.06-2.57-2.52-2.57-4.23,9.64-3.91,12.53,4.47,13.72,6.58,10.4l2.1-3.33Z" transform="translate(-56.93 -54.57)"/></svg>