<svg id="Calque_1" data-name="Calque 1" xmlns="http://www.w3.org/2000/svg" viewBox="0 0 245.45 229.44"><defs><style>.cls-1{fill:#157069;}.cls-2{fill:#1e9b95;}.cls-3{fill:#30bdba;}</style></defs><title>logo myware</title><path class="cls-1" d="M177.52,182.93c-58.63,0-106.17,38.25-106.17,85.44H283.7C283.7,221.18,236.16,182.93,177.52,182.93Z" transform="translate(-71.35 -86.13)"/><circle class="cls-1" cx="121.1" cy="45.42" r="45.42"/><path class="cls-2" d="M194.18,182.93C135.54,182.93,88,221.18,88,268.37H300.35C300.35,221.18,252.81,182.93,194.18,182.93Z" transform="translate(-71.35 -86.13)"/><circle class="cls-2" cx="129.6" cy="45.42" r="45.42"/><path class="cls-3" d="M210.42,182.93c-58.64,0-106.17,38.25-106.17,85.44H316.59C316.59,221.18,269.06,182.93,210.42,182.93Z" transform="translate(-71.35 -86.13)"/><circle class="cls-3" cx="136.88" cy="46.58" r="45.42"/><rect class="cls-1" y="188.08" width="212.35" height="6.43"/><rect class="cls-2" x="16.65" y="188.08" width="212.35" height="6.43"/><rect class="cls-3" x="32.9" y="188.08" width="212.35" height="6.43"/><rect class="cls-1" x="0.21" y="201.15" width="212.35" height="28.29"/><rect class="cls-2" x="16.86" y="201.15" width="212.35" height="28.29"/><rect class="cls-3" x="33.1" y="201.15" width="212.35" height="28.29"/></svg>