<svg xmlns="http://www.w3.org/2000/svg" xmlns:xlink="http://www.w3.org/1999/xlink" viewBox="0 0 256.1 383.14"><defs><style>.cls-1{fill:none;}.cls-2{fill:#97a3a2;opacity:0.86;}.cls-3{fill:#332d2b;}.cls-4{fill:#305d68;}.cls-5{fill:#16aaaa;}.cls-6{fill:#bf7f62;}.cls-7{clip-path:url(#clip-path);}.cls-8{clip-path:url(#clip-path-2);}.cls-9{fill:#6d473a;}.cls-10{clip-path:url(#clip-path-3);}.cls-11{fill:#080707;}.cls-12{fill:#fff;}.cls-13{fill:#0b0a0a;}.cls-14{fill:#231f20;}.cls-15{fill:#f9f9fa;}.cls-16{fill:#d5e8e8;}.cls-17{fill:#707777;}.cls-18{fill:#9faaaa;}</style><clipPath id="clip-path" transform="translate(-98.32 -39.43)"><path class="cls-1" d="M162.16,129.64s-35.19,6.47-36.4,16.18,22.65,61.48,19.82,73.61a195.23,195.23,0,0,1-6.29,21.43l79.1,2s-8.9-17.79-6.48-34.78,27.51-58.65,14.16-67.55-31-10.92-31-10.92Z"/></clipPath><clipPath id="clip-path-2" transform="translate(-98.32 -39.43)"><path class="cls-1" d="M163.58,118.1s.2,8.09-1.42,12.54H195s-3.74-7.69-2.63-13.55Z"/></clipPath><clipPath id="clip-path-3" transform="translate(-98.32 -39.43)"><ellipse class="cls-1" cx="177.8" cy="92.35" rx="26.11" ry="33.35"/></clipPath></defs><title>project</title><g id="Calque_4" data-name="Calque 4"><ellipse class="cls-2" cx="89.27" cy="363.21" rx="89.27" ry="19.93"/></g><g id="Calque_1" data-name="Calque 1"><g id="shoes"><path class="cls-3" d="M146.14,392.57s-9.64,10.93-9.43,15,3.86,5.36,12,5.79a62.82,62.82,0,0,0,16.5-1.72s1.72,0,2.36-4.5-5.41-14.57-5.41-14.57l-8.3-4.5Z" transform="translate(-98.32 -39.43)"/><path class="cls-3" d="M198.86,392.57s-9.65,10.93-9.43,15,3.86,5.36,12,5.79a62.89,62.89,0,0,0,16.5-1.72s1.71,0,2.36-4.5-5.41-14.57-5.41-14.57l-8.31-4.5Z" transform="translate(-98.32 -39.43)"/></g><polygon class="cls-4" points="40.96 201.43 47.82 353.14 63.84 353.14 80.27 225.43 100.53 353.14 116.39 353.14 120.06 203.46 40.96 201.43"/><path class="cls-5" d="M162.16,129.64s-35.19,6.47-36.4,16.18,22.65,61.48,19.82,73.61a195.23,195.23,0,0,1-6.29,21.43l79.1,2s-8.9-17.79-6.48-34.78,27.51-58.65,14.16-67.55-31-10.92-31-10.92Z" transform="translate(-98.32 -39.43)"/><polygon class="cls-6" points="94.45 189.87 83.71 189.87 78.74 187.68 78.74 183.38 93.03 181.61 94.45 189.87"/><polygon class="cls-6" points="63.74 189.87 74.48 189.87 79.45 187.68 79.45 183.38 65.16 181.61 63.74 189.87"/><g id="hands"><polygon class="cls-5" points="28.15 104.43 8.82 168.43 63.84 190.93 66.68 176.14 33.57 162.96 43.85 120.21 28.15 104.43"/><polygon class="cls-5" points="130.34 104.43 149.68 168.43 94.66 190.93 91.82 176.14 124.93 162.96 114.64 120.21 130.34 104.43"/></g><g class="cls-7"><polygon class="cls-6" points="48.68 90.64 81.57 123.32 112.21 91.5 74.93 82.61 48.68 90.64"/></g><path class="cls-6" d="M163.58,118.1s.2,8.09-1.42,12.54H195s-3.74-7.69-2.63-13.55Z" transform="translate(-98.32 -39.43)"/><g class="cls-8"><ellipse class="cls-9" cx="80.17" cy="56.86" rx="26.11" ry="33.35"/></g><ellipse class="cls-6" cx="79.48" cy="52.92" rx="26.11" ry="33.35"/><g class="cls-10"><polygon class="cls-11" points="53.37 39.7 54.35 45.99 61.05 35.2 65.88 40.5 75.03 31.18 80.27 38.25 89.34 30.54 94.87 40.66 100.43 35.04 102.03 43.88 103.72 40.51 108.46 18.32 86.12 3.54 56.55 17.52 49.96 34.55 53.37 39.7"/></g><g id="RIGHT_EYE" data-name="RIGHT EYE"><circle class="cls-12" cx="90.56" cy="53.31" r="3.32"/><circle class="cls-13" cx="90.56" cy="53.31" r="0.81"/><path class="cls-14" d="M192.2,88a25.65,25.65,0,0,1-3.63.27c-.53,0-1,.07-1.55.14a13.8,13.8,0,0,0-1.81.41A2.76,2.76,0,0,1,186.37,87a4.18,4.18,0,0,1,2.11-.7,4.86,4.86,0,0,1,2.08.4A3.82,3.82,0,0,1,192.2,88Z" transform="translate(-98.32 -39.43)"/></g><g id="RIGHT_EYE-2" data-name="RIGHT EYE"><circle class="cls-12" cx="68.2" cy="53.31" r="3.32"/><circle class="cls-13" cx="68.2" cy="53.31" r="0.81"/><path class="cls-14" d="M163.21,88a3.71,3.71,0,0,1,1.64-1.33,4.78,4.78,0,0,1,2.07-.4A4.18,4.18,0,0,1,169,87a2.77,2.77,0,0,1,1.17,1.85,14.27,14.27,0,0,0-1.82-.41c-.53-.07-1-.11-1.55-.14A25.52,25.52,0,0,1,163.21,88Z" transform="translate(-98.32 -39.43)"/></g><polygon class="cls-11" points="54.5 43.2 50.92 36 53.37 37.13 50.92 19.57 65.88 0 71.34 9.16 81.78 2.57 89.5 10.61 92.36 8.04 100.91 17.52 109.43 14.95 107.34 27.32 109.43 30.05 104.78 44.65 103.72 40.51 96.7 27.86 83.71 21.05 62.98 29.09 56.39 37.61 54.5 43.2"/><path class="cls-15" d="M168.78,111.71a.43.43,0,0,1,.36-.68,58,58,0,0,0,6.57.24c4.84,0,8.76-.14,10.73-.23a.56.56,0,0,1,.36,1c-2,2-6.56,6-9.92,6C173.36,118,170.05,113.62,168.78,111.71Z" transform="translate(-98.32 -39.43)"/></g><g id="leave"><path class="cls-16" d="M271.07,237.43s-8.36,36.64,28.29,55.28c0,0-1.93-15.42,10.93-18.64C310.29,274.07,275.57,246.43,271.07,237.43Z" transform="translate(-98.32 -39.43)"/><path class="cls-17" d="M301.23,281.28A74.27,74.27,0,0,1,291,275.61a40.43,40.43,0,0,1-4.64-3.59,15.27,15.27,0,0,1-3.69-4.54l.79,1.24.93,1.13a23.57,23.57,0,0,0,2.08,2,40.19,40.19,0,0,0,4.67,3.52c1.61,1.09,3.27,2.13,5,3.09S299.49,280.4,301.23,281.28Z" transform="translate(-98.32 -39.43)"/><path class="cls-16" d="M306.24,319.71s-6.46,28.36,21.89,42.79c0,0-1.49-11.94,8.46-14.43C336.59,348.07,309.73,326.68,306.24,319.71Z" transform="translate(-98.32 -39.43)"/><path class="cls-17" d="M329.58,353.65a57,57,0,0,1-8-4.36A32.13,32.13,0,0,1,318,346.5,11.67,11.67,0,0,1,315.2,343a13.32,13.32,0,0,0,2.95,3.4,31.78,31.78,0,0,0,3.61,2.71q1.88,1.28,3.84,2.4C326.92,352.22,328.24,353,329.58,353.65Z" transform="translate(-98.32 -39.43)"/><polygon class="cls-16" points="207.28 187.68 220.96 231 256.11 225.64 240.25 185.74 207.28 187.68"/></g><g id="book"><rect class="cls-16" x="52.37" y="145.84" width="57.02" height="41.84"/><path class="cls-18" d="M150.69,222.8l5.21,0,5.21,0,10.41.1,10.4.1c1.73,0,3.46,0,5.2,0l2.6-.06,2.6-.12c-1.71.31-3.44.49-5.18.66s-3.47.24-5.21.31c-3.47.16-7,.18-10.42.14s-6.95-.14-10.42-.33S154.15,223.17,150.69,222.8Z" transform="translate(-98.32 -39.43)"/><path class="cls-18" d="M166,215.18l5.21,0,5.21,0,10.41.1,10.4.09c1.73,0,3.46,0,5.2,0l2.6,0,2.6-.12c-1.71.3-3.44.48-5.18.66s-3.47.24-5.21.31c-3.47.16-7,.17-10.43.14s-6.94-.14-10.41-.34S169.46,215.55,166,215.18Z" transform="translate(-98.32 -39.43)"/><path class="cls-18" d="M156.25,190.72l5.21,0,5.21,0,10.41.11,10.4.09c1.73,0,3.46,0,5.2,0l2.6-.06,2.6-.11c-1.71.3-3.45.48-5.18.66s-3.47.23-5.21.31c-3.47.15-7,.17-10.43.14s-6.94-.14-10.41-.34S159.71,191.08,156.25,190.72Z" transform="translate(-98.32 -39.43)"/><path class="cls-18" d="M155.39,199.75l5.21,0,5.21,0,10.41.11,10.4.09c1.73,0,3.46,0,5.2,0l2.6,0,2.6-.12c-1.71.3-3.45.48-5.18.66s-3.47.23-5.21.31c-3.47.15-6.95.17-10.43.14s-6.94-.14-10.41-.34S158.85,200.11,155.39,199.75Z" transform="translate(-98.32 -39.43)"/><path class="cls-18" d="M152.5,207.62c2.54-.21,5.09-.3,7.63-.38s5.08-.11,7.62-.12,5.08,0,7.62.12l3.82.13c1.27.09,2.54.14,3.81.25-1.27.11-2.54.16-3.81.24l-3.81.14c-2.54.09-5.09.11-7.63.12s-5.08,0-7.62-.12S155,207.83,152.5,207.62Z" transform="translate(-98.32 -39.43)"/></g></svg>